<?xml version="1.0" standalone="no"?>
<!DOCTYPE svg PUBLIC "-//W3C//DTD SVG 20010904//EN"
 "http://www.w3.org/TR/2001/REC-SVG-20010904/DTD/svg10.dtd">
<svg version="1.0" xmlns="http://www.w3.org/2000/svg"
 width="359.000000pt" height="359.000000pt" viewBox="0 0 359.000000 359.000000"
 preserveAspectRatio="xMidYMid meet">
<metadata>
Created by potrace 1.14, written by Peter Selinger 2001-2017
</metadata>
<g transform="translate(0.000000,359.000000) scale(0.100000,-0.100000)"
fill="#000000" stroke="none">
<path d="M1496 3553 c-6 -6 -47 -94 -47 -100 0 -2 -7 -22 -15 -45 -9 -24 -18
-88 -20 -143 -2 -54 -9 -115 -14 -135 -8 -30 -19 -103 -22 -147 -1 -7 -5 -13
-10 -13 -5 0 -6 -5 -3 -10 4 -6 1 -17 -5 -25 -7 -8 -9 -15 -5 -15 4 0 2 -6 -4
-14 -6 -7 -14 -35 -17 -62 -4 -27 -11 -54 -15 -60 -5 -6 -7 -20 -4 -32 2 -12
0 -22 -5 -22 -8 0 -34 -59 -31 -72 0 -5 -4 -8 -9 -8 -5 0 -9 -3 -9 -7 1 -5 0
-10 -1 -13 -17 -43 -10 -271 9 -294 8 -9 14 -33 15 -54 2 -38 38 -102 58 -102
6 0 6 -6 -2 -15 -10 -12 -10 -15 0 -15 7 0 10 -7 6 -15 -3 -9 0 -15 9 -15 8 0
15 -5 15 -11 0 -5 5 -7 10 -4 6 3 10 1 10 -5 0 -6 5 -8 13 -4 9 6 9 5 0 -8 -7
-8 -10 -18 -6 -21 3 -4 1 -7 -6 -7 -7 0 -9 -4 -6 -10 3 -6 -1 -7 -10 -4 -11 5
-18 0 -21 -13 -3 -11 -17 -26 -30 -33 -13 -8 -24 -17 -24 -22 0 -5 -4 -7 -8
-4 -5 3 -9 0 -9 -7 0 -7 -4 -21 -9 -31 -6 -15 -4 -18 7 -11 8 4 1 -4 -14 -18
-16 -15 -23 -27 -16 -29 8 -3 7 -9 -5 -20 -18 -19 -21 -38 -6 -38 6 0 5 -6 -2
-14 -7 -8 -15 -12 -18 -11 -3 2 -12 0 -20 -5 -12 -7 -12 -12 -2 -22 16 -16 15
-31 -2 -25 -11 4 -14 -2 -14 -23 1 -18 5 -27 12 -24 6 3 1 -3 -12 -14 -15 -14
-18 -22 -10 -24 8 -3 2 -14 -16 -31 -28 -26 -28 -27 -7 -27 13 0 19 -4 16 -11
-4 -6 -14 -8 -24 -5 -10 4 -8 -1 7 -13 13 -12 18 -22 12 -26 -5 -3 -10 -15
-10 -26 0 -11 -4 -17 -10 -14 -16 10 -11 -11 6 -26 13 -11 14 -15 2 -23 -18
-15 -40 -65 -33 -77 4 -5 1 -9 -5 -9 -11 0 -57 -70 -53 -81 2 -7 -60 -77 -69
-78 -5 -1 -11 -1 -14 -1 -4 0 -1 -7 6 -15 10 -12 10 -15 -4 -15 -9 0 -22 -16
-30 -35 -8 -19 -19 -35 -24 -35 -14 0 -62 -47 -55 -54 3 -3 -10 -12 -30 -21
-19 -8 -55 -27 -79 -43 -24 -15 -64 -39 -90 -52 -26 -13 -46 -27 -45 -30 1 -3
-11 -18 -26 -34 -15 -16 -27 -37 -27 -48 0 -10 -6 -31 -14 -46 -11 -22 -12
-31 -2 -44 10 -13 15 -15 24 -6 9 9 12 9 12 -1 0 -8 12 -25 26 -38 18 -16 25
-19 20 -8 -5 14 -2 14 22 -3 29 -19 67 -19 55 1 -4 7 1 6 11 -2 15 -12 19 -13
26 -1 5 7 18 15 30 17 11 2 32 14 46 26 16 15 36 23 55 22 20 -1 28 2 25 10
-6 16 32 48 46 39 7 -4 8 -3 4 5 -5 7 3 13 23 17 17 4 31 11 31 16 0 6 7 7 16
4 15 -6 15 -4 3 11 -7 10 -9 15 -5 11 5 -4 15 0 23 10 12 16 13 15 6 -3 -4
-15 -1 -13 16 8 12 15 31 27 42 27 11 0 18 4 14 9 -3 5 0 13 6 17 8 4 9 3 5
-4 -11 -18 5 -14 27 6 11 9 17 11 13 5 -5 -8 -1 -13 10 -13 9 0 22 -8 29 -17
11 -14 10 -20 -4 -31 -9 -7 -11 -11 -4 -8 6 4 14 2 18 -4 3 -5 -1 -10 -9 -10
-12 0 -13 -6 -6 -30 5 -16 6 -30 2 -30 -4 0 0 -5 8 -10 8 -5 10 -10 3 -10 -6
0 -9 -9 -6 -20 3 -13 0 -20 -8 -20 -11 0 -11 -2 1 -10 10 -6 11 -10 3 -10 -7
0 -13 -5 -13 -11 0 -5 6 -7 13 -4 6 4 4 0 -6 -8 -11 -9 -14 -18 -8 -21 11 -7
-22 -75 -43 -88 -7 -5 -6 -8 4 -8 12 0 12 -2 2 -9 -13 -8 -19 -60 -11 -90 7
-24 32 -52 62 -67 16 -9 25 -20 22 -27 -4 -7 1 -3 9 7 9 11 16 14 16 8 0 -10
5 -10 22 -1 18 10 20 9 14 -7 -6 -18 -5 -18 9 0 11 14 15 16 15 5 0 -12 2 -12
10 1 8 13 10 13 10 1 0 -12 3 -12 12 -3 9 9 14 7 25 -6 12 -15 12 -15 7 0 -4
12 -1 16 13 13 10 -1 17 -8 15 -15 -1 -6 2 -9 8 -5 6 3 8 10 5 15 -3 4 4 10
16 13 15 4 18 2 10 -7 -8 -9 -7 -13 4 -13 8 0 15 7 15 16 1 14 3 13 14 -2 12
-16 14 -16 20 -2 3 9 2 13 -4 10 -6 -3 -10 -1 -10 4 0 6 8 11 18 11 10 0 23 5
29 11 8 8 13 7 18 -2 6 -8 4 -10 -5 -4 -9 5 -11 4 -6 -4 4 -6 12 -9 17 -6 5 4
9 1 9 -6 0 -7 3 -10 6 -7 3 4 0 17 -7 30 -6 12 -8 20 -4 16 5 -4 14 -3 22 4 7
6 16 8 20 4 3 -3 0 -6 -8 -6 -12 0 -11 -2 1 -11 12 -9 11 -10 -5 -5 -19 6 -19
5 -2 -8 22 -17 22 -42 0 -56 -16 -10 -15 -11 5 -6 22 4 22 3 9 -12 -8 -9 -13
-25 -12 -34 2 -11 -3 -18 -13 -19 -11 0 -12 -2 -4 -6 14 -6 16 -39 2 -48 -5
-3 -6 -13 -3 -22 4 -10 2 -14 -4 -10 -7 5 -9 -1 -5 -15 4 -16 2 -19 -9 -13
-12 7 -12 6 -1 -7 10 -12 10 -18 2 -23 -7 -4 -10 -18 -7 -31 2 -13 0 -24 -6
-24 -5 0 -4 -7 3 -15 6 -8 9 -19 6 -24 -4 -5 -1 -13 5 -17 8 -4 9 -3 5 4 -4 7
-2 12 3 12 6 0 11 -4 11 -9 0 -18 59 -29 107 -20 18 4 31 4 29 0 -5 -8 111 -5
134 3 8 2 33 7 55 9 42 5 103 24 121 38 6 5 14 5 18 1 4 -4 6 -2 5 3 -2 6 2
20 8 31 7 12 11 37 9 56 -2 24 1 35 10 35 8 0 14 -8 14 -18 0 -22 16 -33 26
-18 5 8 3 9 -6 4 -10 -6 -12 -3 -8 13 5 17 1 23 -19 28 -18 5 -21 9 -12 15 8
4 18 4 23 -1 15 -15 26 -12 26 8 0 14 -2 15 -10 2 -5 -8 -10 -12 -11 -7 -1 4
-3 12 -4 17 -1 6 -3 15 -4 21 0 5 -5 8 -10 4 -5 -3 -13 -1 -16 5 -4 6 -3 9 2
8 4 -2 8 2 8 7 0 6 -4 9 -9 7 -5 -2 -4 3 2 11 10 11 9 17 -2 26 -18 15 -9 52
11 44 8 -3 11 -9 6 -12 -13 -10 -15 -33 -2 -25 8 5 9 3 4 -6 -5 -8 -4 -11 2
-7 6 4 9 18 7 33 -2 19 1 24 12 20 8 -3 12 -1 9 4 -3 5 3 15 14 21 10 7 17 18
15 24 -3 6 5 11 16 11 13 0 19 -5 15 -14 -2 -7 -1 -11 4 -8 5 3 11 -1 15 -9 6
-17 26 -20 26 -4 0 5 -5 7 -12 3 -8 -5 -9 -2 -5 10 4 9 3 15 -2 12 -5 -3 -11
1 -15 9 -3 9 -12 12 -22 8 -10 -4 -15 -2 -11 3 3 6 1 16 -5 24 -8 13 -9 13 -5
0 2 -8 -3 -28 -13 -45 -12 -22 -24 -30 -49 -31 -31 -2 -31 -1 -15 17 13 15 19
16 25 7 4 -7 11 -10 14 -7 3 4 -1 11 -9 18 -11 9 -17 8 -30 -4 -9 -9 -16 -12
-16 -6 0 6 -5 11 -11 11 -8 0 -8 -5 1 -15 9 -10 9 -15 1 -15 -11 0 -15 12 -11
44 1 10 -3 15 -8 12 -6 -3 -8 8 -5 30 3 20 1 34 -4 31 -4 -3 -8 5 -8 18 0 18
3 21 13 12 11 -8 11 -6 1 16 -7 15 -16 27 -21 27 -17 0 17 27 42 34 17 5 21 4
12 -2 -11 -7 -11 -10 2 -15 9 -4 15 -3 15 1 -5 32 23 39 43 11 8 -12 9 -11 5
2 -4 11 5 19 27 27 18 7 38 23 44 37 6 14 17 25 24 26 7 0 4 4 -7 9 -16 7 -16
9 -4 9 9 1 20 8 23 17 3 8 10 12 16 9 6 -3 10 4 10 16 0 18 2 19 15 9 12 -10
15 -10 15 3 0 8 6 17 13 19 19 8 37 -2 37 -20 0 -15 2 -15 10 -2 8 12 10 9 10
-12 0 -15 5 -30 11 -34 8 -4 7 -9 -2 -15 -11 -7 -11 -9 -1 -9 15 0 32 -40 24
-55 -9 -15 -10 -45 -1 -45 5 0 4 -11 -1 -25 -7 -18 -6 -25 2 -25 9 0 9 -3 1
-11 -7 -7 -8 -21 -2 -43 9 -29 7 -40 -17 -101 -11 -29 -11 -109 1 -117 6 -5 6
-8 -2 -8 -18 0 -34 35 -27 57 6 17 6 17 -11 1 -17 -16 -17 -18 -1 -42 9 -14
22 -26 28 -26 7 0 3 -6 -7 -14 -18 -13 -18 -14 2 -24 11 -6 23 -8 27 -5 3 3 6
1 6 -5 0 -7 -5 -12 -11 -12 -5 0 -7 -6 -4 -12 4 -7 -3 -2 -14 11 -12 13 -21
19 -21 14 0 -5 -7 -10 -16 -10 -14 0 -14 2 2 14 13 10 14 13 3 14 -8 1 -18 1
-22 0 -5 -1 -6 3 -2 9 9 15 17 67 8 55 -10 -13 -33 -17 -33 -6 0 5 7 11 15 15
9 3 12 12 9 21 -5 12 -10 13 -17 6 -17 -17 -31 -13 -17 4 8 10 21 13 33 9 14
-4 17 -3 12 6 -6 9 -4 11 6 4 22 -13 44 -15 31 -2 -8 8 -6 18 5 35 9 13 13 26
9 30 -3 3 -6 1 -6 -6 0 -9 -4 -9 -14 1 -8 7 -12 15 -11 18 2 3 0 12 -4 19 -6
9 -11 10 -15 2 -4 -6 -2 -11 3 -11 8 0 7 -7 -1 -19 -7 -11 -16 -18 -20 -15 -4
3 -5 -3 -1 -13 6 -15 4 -16 -9 -5 -14 11 -17 10 -23 -7 -3 -12 -13 -21 -21
-21 -8 0 -14 -5 -14 -10 0 -7 6 -7 19 0 32 17 38 11 11 -11 -23 -19 -25 -19
-37 -3 -7 9 -10 21 -6 27 3 6 1 7 -5 3 -7 -4 -12 -3 -12 2 0 14 -27 23 -45 16
-10 -4 -13 -13 -10 -25 5 -15 3 -17 -11 -12 -13 5 -16 3 -11 -10 4 -10 -1 -22
-14 -31 -21 -14 -21 -14 -1 -25 11 -6 22 -8 24 -5 12 11 49 13 45 1 -2 -7 -11
-11 -20 -9 -8 1 -18 -2 -22 -8 -5 -8 -12 -7 -23 2 -15 12 -16 11 -3 -5 11 -13
17 -15 28 -6 7 7 17 8 21 4 4 -4 1 -10 -5 -12 -7 -3 -13 -10 -13 -16 0 -6 20
10 45 37 25 27 48 47 51 43 4 -4 -8 -20 -26 -37 -25 -23 -30 -34 -22 -42 7 -7
12 -8 12 -3 1 6 7 -1 14 -14 11 -20 14 -21 19 -7 4 10 3 15 -2 12 -5 -3 -12 1
-15 10 -3 8 -10 12 -16 9 -5 -3 -10 -2 -10 3 0 11 30 25 38 17 3 -3 2 -5 -3
-5 -4 0 4 -9 19 -21 28 -22 35 -42 11 -33 -8 4 -15 2 -15 -4 0 -6 7 -9 16 -8
18 3 35 26 28 38 -3 4 -1 8 5 8 18 0 21 -17 6 -36 -19 -25 -19 -40 1 -48 14
-5 15 -4 5 8 -13 15 -7 36 9 36 5 0 7 -8 3 -18 -4 -11 1 -8 15 8 24 29 30 15
7 -17 -11 -16 -12 -24 -4 -29 7 -4 9 -3 5 4 -9 15 13 27 26 14 17 -17 36 -3
30 21 -3 12 -2 20 1 17 3 -3 8 -18 11 -33 3 -19 1 -25 -7 -21 -9 5 -9 4 -1 -5
15 -16 57 -23 48 -8 -4 7 4 2 17 -9 13 -12 30 -19 38 -16 10 3 11 0 5 -9 -6
-11 -5 -12 7 -2 12 10 18 10 29 0 7 -6 10 -7 7 -1 -6 10 65 18 136 16 9 -1 15
3 12 8 -3 4 3 7 12 5 10 -1 17 -9 15 -16 -2 -8 4 -6 17 5 16 14 21 16 21 5 0
-10 3 -10 8 -3 9 15 53 21 71 10 10 -7 12 -6 6 4 -6 10 -4 12 9 7 10 -4 15 -3
11 3 -3 6 1 10 9 10 9 0 16 5 16 11 0 7 6 17 14 23 21 17 28 52 14 67 -7 8
-13 21 -13 29 0 8 -7 14 -15 12 -11 -3 -12 -1 -3 8 12 13 0 33 -44 73 -13 11
-23 31 -23 43 0 12 -4 24 -10 26 -12 4 -16 179 -5 199 5 7 10 50 11 94 2 44 6
91 9 105 12 41 12 94 0 109 -8 11 -7 13 4 7 10 -7 12 -3 6 14 -5 15 -2 25 6
31 11 7 11 9 1 9 -10 0 -10 5 -2 20 6 11 9 20 6 20 -2 0 0 16 4 36 6 27 5 37
-6 41 -8 3 -11 10 -8 15 4 6 7 27 8 47 1 20 6 42 10 50 7 10 5 12 -3 7 -9 -6
-12 3 -10 35 3 73 0 92 -14 86 -7 -3 -13 3 -13 14 0 15 3 16 16 6 13 -11 13
-10 0 7 -17 22 -21 66 -5 66 5 0 1 7 -9 15 -11 8 -15 15 -9 15 6 0 10 11 9 24
0 13 -4 22 -8 20 -4 -2 -9 0 -13 6 -3 5 -2 10 4 10 6 0 7 7 4 17 -5 12 -3 14
8 8 12 -8 12 -6 0 9 -9 10 -14 34 -13 57 2 23 -2 39 -8 39 -7 0 -8 6 -1 19 8
14 7 20 -5 25 -12 4 -13 10 -4 26 7 13 7 20 1 20 -6 0 -7 8 -4 17 5 13 2 15
-13 10 -19 -7 -19 -7 0 8 17 13 15 19 -5 17 -3 -1 -4 10 -1 23 2 15 0 25 -7
25 -6 0 -11 5 -11 11 0 5 5 7 11 3 8 -5 8 -1 0 14 -8 15 -8 22 2 25 8 4 4 13
-13 27 -14 12 -19 19 -12 15 11 -6 12 -3 3 13 -6 12 -15 23 -20 27 -16 9 -4
61 30 131 23 48 28 68 19 74 -8 5 -7 9 5 13 13 5 14 11 5 27 -8 14 -8 20 0 20
6 0 9 4 6 9 -3 5 2 12 11 15 14 6 15 9 4 15 -10 7 -11 13 -2 30 8 14 8 21 1
21 -7 0 -8 6 -1 18 6 11 12 31 15 45 2 14 11 41 20 59 17 38 25 72 31 142 3
27 9 54 13 60 5 6 14 35 21 64 13 53 33 96 76 167 40 65 88 169 91 197 2 21
-24 32 -42 17 -8 -6 -14 -9 -14 -5 0 3 -30 -9 -67 -28 -38 -19 -93 -42 -123
-51 -30 -9 -62 -19 -70 -22 -8 -4 -17 -7 -20 -8 -3 0 -16 -5 -29 -9 -36 -12
-153 -14 -176 -3 -11 6 -38 9 -61 9 -28 -2 -49 4 -67 18 -14 11 -30 20 -35 20
-6 0 -12 4 -14 10 -1 5 -15 11 -30 12 -15 1 -30 9 -33 16 -3 8 -12 12 -19 9
-8 -3 -20 0 -26 8 -6 7 -20 12 -31 10 -11 -2 -22 2 -25 10 -4 9 -15 11 -32 8
-32 -7 -192 -7 -242 0 -44 5 -70 16 -70 29 0 6 -25 34 -57 64 -31 30 -52 54
-47 54 5 0 4 4 -2 8 -6 4 -17 21 -26 37 -55 109 -75 142 -92 158 -10 9 -16 17
-12 17 4 0 -5 11 -20 25 -27 25 -54 32 -68 18z m-266 -1777 c0 -11 -19 -15
-25 -6 -3 5 1 10 9 10 9 0 16 -2 16 -4z m1102 -1379 c-7 -8 -11 -16 -9 -18 1
-2 -4 2 -10 10 -9 10 -13 11 -13 3 0 -15 -27 -16 -36 0 -5 8 -2 9 10 5 12 -5
20 1 28 19 10 22 13 23 26 10 12 -12 13 -18 4 -29z m-282 -7 c0 -5 -2 -10 -4
-10 -3 0 -8 5 -11 10 -3 6 -1 10 4 10 6 0 11 -4 11 -10z m120 0 c0 -5 -7 -10
-16 -10 -8 0 -12 5 -9 10 3 6 10 10 16 10 5 0 9 -4 9 -10z m30 -30 c8 -16 7
-26 -5 -42 -8 -13 -15 -17 -15 -10 0 12 -38 10 -59 -2 -16 -11 -22 11 -6 24 8
7 12 17 8 24 -3 6 -3 8 2 4 4 -4 17 -1 29 7 27 20 33 19 46 -5z m73 -35 c-16
-12 -9 -40 7 -30 5 3 11 1 15 -5 3 -5 -2 -10 -12 -10 -15 0 -16 -2 -3 -10 13
-8 12 -10 -4 -10 -13 0 -16 -5 -12 -17 4 -11 -4 -7 -19 10 -29 33 -30 40 -10
60 11 12 12 16 2 20 -6 2 2 4 20 4 27 0 30 -2 16 -12z m-183 -69 c0 -2 -7 -7
-16 -10 -8 -3 -12 -2 -9 4 6 10 25 14 25 6z m287 -2 c-3 -3 -12 -4 -19 -1 -8
3 -5 6 6 6 11 1 17 -2 13 -5z m-7 -76 c0 -6 -6 -5 -15 2 -8 7 -15 14 -15 16 0
2 7 1 15 -2 8 -4 15 -11 15 -16z m54 -23 c-4 -8 -8 -15 -10 -15 -2 0 -4 7 -4
15 0 8 4 15 10 15 5 0 7 -7 4 -15z"/>
<path d="M2143 340 c-18 -11 -33 -23 -33 -26 0 -4 7 -1 15 6 8 6 20 8 26 4 8
-5 9 -3 4 5 -5 9 -1 12 12 9 11 -2 21 1 22 7 4 17 -13 15 -46 -5z"/>
<path d="M2234 299 c-5 -8 -3 -9 6 -4 10 6 12 4 7 -8 -3 -9 -3 -18 1 -21 4 -3
8 4 9 14 2 23 -13 35 -23 19z"/>
<path d="M1319 2013 c-13 -16 -12 -17 4 -4 9 7 17 15 17 17 0 8 -8 3 -21 -13z"/>
<path d="M2275 711 c-3 -5 -2 -12 3 -15 5 -3 9 1 9 9 0 17 -3 19 -12 6z"/>
<path d="M2020 610 c0 -6 7 -10 15 -10 8 0 15 2 15 4 0 2 -7 6 -15 10 -8 3
-15 1 -15 -4z"/>
<path d="M2255 611 c-3 -5 -2 -12 3 -15 5 -3 9 1 9 9 0 17 -3 19 -12 6z"/>
<path d="M2097 593 c3 -7 6 -13 8 -13 1 0 7 6 13 13 8 10 6 13 -7 13 -11 0
-17 -6 -14 -13z"/>
<path d="M2193 597 c0 -8 6 -14 14 -14 9 0 10 4 2 14 -6 7 -12 13 -14 13 -1 0
-2 -6 -2 -13z"/>
<path d="M2060 596 c0 -2 8 -10 18 -17 15 -13 16 -12 3 4 -13 16 -21 21 -21
13z"/>
<path d="M2035 570 c3 -5 8 -10 11 -10 2 0 4 5 4 10 0 6 -5 10 -11 10 -5 0 -7
-4 -4 -10z"/>
<path d="M2148 562 c4 -11 1 -13 -8 -7 -8 5 -11 4 -7 -3 8 -12 32 -10 44 3 5
4 2 5 -6 0 -10 -6 -13 -4 -9 7 4 8 1 15 -7 15 -8 0 -11 -7 -7 -15z"/>
<path d="M2056 555 c-3 -8 -1 -15 4 -15 6 0 10 7 10 15 0 8 -2 15 -4 15 -2 0
-6 -7 -10 -15z"/>
<path d="M2087 549 c7 -7 15 -10 18 -7 3 3 -2 9 -12 12 -14 6 -15 5 -6 -5z"/>
<path d="M2214 548 c-3 -5 -2 -8 3 -7 20 4 27 -2 13 -12 -12 -8 -12 -10 -1 -7
19 5 23 35 4 35 -7 0 -16 -4 -19 -9z"/>
<path d="M2030 530 c0 -6 7 -10 15 -10 8 0 15 2 15 4 0 2 -7 6 -15 10 -8 3
-15 1 -15 -4z"/>
<path d="M2116 523 c-6 -14 -5 -15 5 -6 7 7 10 15 7 18 -3 3 -9 -2 -12 -12z"/>
<path d="M2310 533 c1 -13 30 -48 30 -36 0 7 -5 15 -10 18 -6 4 -8 11 -5 16 4
5 1 9 -4 9 -6 0 -11 -3 -11 -7z"/>
<path d="M2066 515 c-18 -13 -18 -14 2 -12 11 0 19 4 16 8 -2 4 2 10 8 12 7 3
9 6 3 6 -5 0 -18 -6 -29 -14z"/>
<path d="M2140 521 c0 -10 19 -25 25 -20 1 2 -3 10 -11 17 -8 7 -14 8 -14 3z"/>
<path d="M2192 521 c-11 -7 -11 -9 0 -14 9 -3 15 1 15 9 0 8 -1 14 -1 14 -1 0
-7 -4 -14 -9z"/>
<path d="M2234 501 c-25 -20 -25 -53 -1 -57 9 -1 15 2 11 7 -3 5 0 9 7 9 7 0
9 3 6 6 -4 4 -14 1 -23 -7 -14 -11 -15 -10 -12 7 4 25 28 43 52 38 10 -2 16 0
12 3 -13 13 -33 11 -52 -6z"/>
<path d="M2296 493 c-6 -14 -5 -15 5 -6 7 7 10 15 7 18 -3 3 -9 -2 -12 -12z"/>
<path d="M2024 488 c-4 -6 -3 -8 4 -4 6 3 13 -3 17 -14 3 -11 11 -20 16 -20 5
0 2 11 -7 25 -19 29 -20 29 -30 13z"/>
<path d="M2099 493 c-1 -5 -1 -11 0 -15 2 -12 -17 -10 -22 2 -3 6 -4 5 -3 -2
2 -7 9 -13 17 -13 8 0 13 6 11 14 -2 8 3 11 13 8 8 -4 15 -2 15 3 0 12 -29 14
-31 3z"/>
<path d="M2350 488 c0 -4 5 -8 11 -8 5 0 7 -6 3 -12 -4 -7 -3 -9 1 -5 15 13
14 34 -1 34 -8 0 -14 -4 -14 -9z"/>
<path d="M2271 480 c0 -8 4 -22 9 -30 12 -18 12 -2 0 25 -6 13 -9 15 -9 5z"/>
<path d="M2185 470 c3 -5 8 -10 11 -10 2 0 4 5 4 10 0 6 -5 10 -11 10 -5 0 -7
-4 -4 -10z"/>
<path d="M2336 467 c3 -10 9 -15 12 -12 3 3 0 11 -7 18 -10 9 -11 8 -5 -6z"/>
<path d="M2115 459 c-4 -6 -5 -12 -2 -15 2 -3 7 2 10 11 7 17 1 20 -8 4z"/>
<path d="M2230 420 c0 -5 5 -10 10 -10 6 0 10 5 10 10 0 6 -4 10 -10 10 -5 0
-10 -4 -10 -10z"/>
<path d="M1586 393 c-6 -14 -5 -15 5 -6 7 7 10 15 7 18 -3 3 -9 -2 -12 -12z"/>
<path d="M1536 392 c-2 -4 4 -8 14 -8 10 0 16 4 14 8 -3 4 -9 8 -14 8 -5 0
-11 -4 -14 -8z"/>
<path d="M2313 279 c-2 -19 11 -26 21 -10 3 5 0 14 -7 19 -10 8 -13 6 -14 -9z"/>
<path d="M2150 235 c0 -2 10 -10 23 -16 20 -11 21 -11 8 4 -13 16 -31 23 -31
12z"/>
<path d="M2126 188 c3 -5 10 -6 15 -3 13 9 11 12 -6 12 -8 0 -12 -4 -9 -9z"/>
<path d="M2076 108 c3 -5 10 -6 15 -3 13 9 11 12 -6 12 -8 0 -12 -4 -9 -9z"/>
<path d="M2435 110 c3 -5 8 -10 11 -10 2 0 4 5 4 10 0 6 -5 10 -11 10 -5 0 -7
-4 -4 -10z"/>
</g>
</svg>
